Coordinates
version=1
nRows=13
nColumns=40
inDegrees=yes

Units are S.I. units (second, meters, Newtons, ...)
Angles are in degrees.

endheader
time	pelvis_tilt	pelvis_list	pelvis_rotation	pelvis_tx	pelvis_ty	pelvis_tz	hip_flexion_r	hip_adduction_r	hip_rotation_r	knee_angle_r	knee_angle_r_beta	ankle_angle_r	subtalar_angle_r	mtp_angle_r	hip_flexion_l	hip_adduction_l	hip_rotation_l	knee_angle_l	knee_angle_l_beta	ankle_angle_l	subtalar_angle_l	mtp_angle_l	lumbar_extension	lumbar_bending	lumbar_rotation	arm_flex_r	arm_add_r	arm_rot_r	elbow_flex_r	pro_sup_r	wrist_flex_r	wrist_dev_r	arm_flex_l	arm_add_l	arm_rot_l	elbow_flex_l	pro_sup_l	wrist_flex_l	wrist_dev_l
     14.01500000	     -6.10780259	     -5.74719399	      5.01570635	      0.81258198	      0.91907610	      0.48760071	      2.58676243	      5.14020304	    -15.00665010	     12.60804860	     12.60804860	     17.20788268	      2.74828485	     -2.51354981	     32.79565685	     -6.77202655	     -1.27891032	     19.08568521	     19.08568521	      4.11613915	     -6.48514546	      7.34399598	     -8.95624386	      7.55233767	      3.29642842	     42.83519075	    -14.43832243	      1.59117019	    103.76990165	     44.06504176	      0.00000000	      0.00000000	    -13.71503586	     -7.50390433	     -0.76877949	     28.83659119	     45.99839416	      0.00000000	      0.00000000
     14.02821429	     -5.92305922	     -5.94527429	      4.82172600	      0.81428397	      0.91868260	      0.48602957	      1.43495441	      5.29221916	    -15.43906714	     11.91536375	     11.91536375	     17.32793489	      4.29159493	     -2.41913939	     32.27131483	     -6.91685888	     -1.23072469	     19.93246150	     19.93246150	      3.56847987	     -6.69073939	      6.54532792	     -8.88816181	      7.69988216	      3.35848822	     42.20878970	    -13.90254541	      2.00065699	    104.69053960	     44.03923431	      0.00000000	      0.00000000	    -14.00605301	     -7.32871063	     -0.82494545	     29.57978469	     45.99508034	      0.00000000	      0.00000000
     14.04142857	     -5.89947262	     -5.97758374	      4.59519514	      0.81562933	      0.91824192	      0.48431473	      0.85798221	      5.19325727	    -15.40452792	     11.96016550	     11.96016550	     17.55904567	      4.69054031	     -2.46047159	     31.78863937	     -6.86555900	     -1.16599396	     20.48941296	     20.48941296	      3.17887422	     -6.85831402	      6.36289787	     -8.67210991	      7.63624265	      3.51259069	     41.54808453	    -13.65396535	      2.24843374	    104.72687169	     44.03383108	      0.00000000	      0.00000000	    -13.94543291	     -7.26897858	     -0.83770821	     29.88593770	     45.99552383	      0.00000000	      0.00000000
     14.05464286	     -5.87642470	     -6.04949723	      4.41047286	      0.81693798	      0.91796419	      0.48229874	      0.26736102	      5.04148524	    -15.84494439	     12.00270071	     12.00270071	     17.81749679	      5.92280251	     -2.33901285	     31.33627602	     -6.79186980	     -0.87305012	     20.98596502	     20.98596502	      2.74328815	     -7.36047260	      5.59493473	     -8.49988419	      7.65392347	      3.63907388	     40.75870006	    -13.66130098	      2.54920965	    105.00241789	     44.03807877	      0.00000000	      0.00000000	    -14.00224494	     -7.24549129	     -0.87839931	     30.92867531	     45.99125004	      0.00000000	      0.00000000
     14.06785714	     -5.85096290	     -6.03841738	      4.22546041	      0.81802278	      0.91796924	      0.48023948	     -0.18954384	      4.84433534	    -15.72031026	     12.22502112	     12.22502112	     17.91737425	      6.04925589	     -2.36221779	     30.91804436	     -6.67768906	     -0.68962725	     21.48902922	     21.48902922	      2.75295985	     -7.55606580	      5.44187921	     -8.39637698	      7.57230089	      3.66099296	     39.94430355	    -13.43763373	      2.79359896	    104.80920608	     44.03616454	      0.00000000	      0.00000000	    -13.69816907	     -7.14362046	     -0.85906824	     31.15608081	     45.99211544	      0.00000000	      0.00000000
     14.08107143	     -5.90847033	     -6.00535477	      4.03366838	      0.81888158	      0.91801870	      0.47797353	     -0.31371409	      4.46788413	    -15.99662152	     12.92179304	     12.92179304	     18.18546082	      6.71358790	     -2.26578201	     30.63299783	     -6.45702836	     -0.22897611	     21.97169467	     21.97169467	      2.68519535	     -8.45025960	      4.99178279	     -8.21394577	      7.45665164	      3.83921004	     38.91665258	    -13.68343391	      3.09574490	    104.29548875	     44.06518590	      0.00000000	      0.00000000	    -13.48973289	     -7.23478261	     -0.83606371	     32.04078881	     45.98333191	      0.00000000	      0.00000000
     14.09428571	     -5.83618654	     -5.99999630	      3.87391322	      0.81970462	      0.91858811	      0.47565438	     -0.65139124	      4.21385027	    -15.88738209	     13.39943837	     13.39943837	     18.14566982	      6.75556321	     -2.29025686	     30.23467743	     -6.34924213	     -0.02547364	     22.45832790	     22.45832790	      3.06049597	     -8.79597562	      4.75308738	     -8.24936337	      7.39243519	      3.76829543	     37.82974974	    -13.56107050	      3.36667086	    103.86988185	     44.06957121	      0.00000000	      0.00000000	    -13.00028857	     -7.22659009	     -0.82599893	     32.32612904	     45.98821234	      0.00000000	      0.00000000
     14.10750000	     -5.78872301	     -6.03862984	      3.70994489	      0.82036057	      0.91935331	      0.47331394	     -0.84119616	      3.96942011	    -15.75583243	     14.05240811	     14.05240811	     18.01624722	      6.77198339	     -2.35489656	     29.83705098	     -6.28906921	      0.18110966	     22.83638541	     22.83638541	      3.56620197	     -9.15812894	      4.51896088	     -8.30373207	      7.33332835	      3.64670737	     36.73694030	    -13.56176859	      3.60114920	    103.34159217	     44.07699544	      0.00000000	      0.00000000	    -12.39969358	     -7.23358270	     -0.82764567	     32.64158739	     45.99684120	      0.00000000	      0.00000000
     14.12071429	     -5.98259974	     -5.87522955	      3.43663717	      0.82056462	      0.91977940	      0.47083822	     -0.09850127	      3.24393411	    -15.71929974	     16.01980708	     16.01980708	     18.13523570	      6.56542927	     -2.86835428	     29.69870861	     -5.97641446	      0.42494566	     23.21324195	     23.21324195	      3.93539673	    -10.09292626	      4.45071145	     -8.04563591	      7.04275252	      4.11008581	     35.31784051	    -14.27463334	      3.85399552	    101.63775061	     44.13184595	      0.00000000	      0.00000000	    -11.69269020	     -7.39180882	     -0.87038226	     33.34482575	     46.00896560	      0.00000000	      0.00000000
     14.13392857	     -6.00346924	     -5.80450297	      3.20214553	      0.82082999	      0.92071948	      0.46836219	      0.36556530	      2.69288109	    -15.53532282	     17.73555943	     17.73555943	     17.92054034	      6.23136748	     -3.37959914	     29.29872950	     -5.80839593	      0.52047320	     23.43174938	     23.43174938	      4.46661451	    -10.59901390	      4.33748439	     -8.04913662	      6.86635295	      4.16761724	     33.95014287	    -14.51692850	      4.16238599	    100.28254271	     44.17149727	      0.00000000	      0.00000000	    -10.96365551	     -7.50125052	     -0.88940498	     33.87622573	     46.01903358	      0.00000000	      0.00000000
     14.14714286	     -6.02062251	     -5.74268401	      2.92653764	      0.82102911	      0.92169913	      0.46597734	      1.04696147	      2.11187055	    -15.23795125	     19.82921428	     19.82921428	     17.55902208	      5.64562235	     -4.12440056	     28.85681420	     -5.70478176	      0.40844303	     23.58979988	     23.58979988	      5.04062203	    -10.93007415	      4.18870020	     -8.05383219	      6.67554749	      4.23374794	     32.49486906	    -14.76242298	      4.47067363	     98.75334552	     44.21509348	      0.00000000	      0.00000000	    -10.17343664	     -7.64971585	     -0.93857785	     34.39230269	     46.03432195	      0.00000000	      0.00000000
     14.16035714	     -5.89749575	     -5.75784145	      2.67865204	      0.82129445	      0.92288862	      0.46366140	      1.69984303	      1.60892367	    -14.92780644	     22.11978131	     22.11978131	     17.01448190	      4.96071798	     -4.85203158	     28.23531192	     -5.69900546	      0.28515115	     23.69939765	     23.69939765	      5.68445201	    -11.06479053	      3.95859897	     -8.23180093	      6.58281097	      4.24071293	     30.87492790	    -14.82153194	      4.82924833	     97.35783125	     44.24797995	      0.00000000	      0.00000000	     -9.33726420	     -7.79683611	     -0.99962547	     34.85067065	     46.05292550	      0.00000000	      0.00000000
     14.17357143	     -6.03561804	     -5.62022874	      2.30745383	      0.82113376	      0.92355261	      0.46149330	      3.16143788	      0.84493613	    -14.32900900	     25.31555251	     25.31555251	     16.27006281	      3.71332867	     -6.11219937	     27.85345905	     -5.60217651	     -0.19536400	     23.73386043	     23.73386043	      6.20420266	    -11.03413514	      3.70518382	     -8.12351619	      6.27635600	      4.36571961	     29.35133787	    -15.14847822	      5.08644048	     95.39038814	     44.30503083	      0.00000000	      0.00000000	     -8.42345895	     -8.01338264	     -1.10335751	     35.40555725	     46.07735896	      0.00000000	      0.00000000
